<mxfile>
    <diagram id="MOJ_J_Yynd3LG68axBsK" name="第 1 页">
        <mxGraphModel dx="820" dy="597" grid="1" gridSize="10" guides="1" tooltips="1" connect="1" arrows="1" fold="1" page="1" pageScale="1" pageWidth="827" pageHeight="1169" math="0" shadow="0">
            <root>
                <mxCell id="0"/>
                <mxCell id="1" parent="0"/>
                <mxCell id="2" value="" style="rounded=0;whiteSpace=wrap;html=1;fillColor=#1ba1e2;strokeColor=#006EAF;fontColor=#ffffff;gradientDirection=east;" vertex="1" parent="1">
                    <mxGeometry y="80" width="520" height="500" as="geometry"/>
                </mxCell>
                <mxCell id="3" value="" style="rounded=0;whiteSpace=wrap;html=1;fillColor=#6a00ff;strokeColor=#3700CC;fontColor=#ffffff;" vertex="1" parent="1">
                    <mxGeometry x="20" y="170" width="230" height="240" as="geometry"/>
                </mxCell>
                <mxCell id="4" value="&lt;font style=&quot;font-size: 18px&quot;&gt;租客移动端&lt;/font&gt;" style="text;html=1;strokeColor=none;fillColor=none;align=center;verticalAlign=middle;whiteSpace=wrap;rounded=0;" vertex="1" parent="1">
                    <mxGeometry x="195" y="100" width="130" height="20" as="geometry"/>
                </mxCell>
                <mxCell id="5" value="" style="rounded=0;whiteSpace=wrap;html=1;fillColor=#6a00ff;strokeColor=#3700CC;fontColor=#ffffff;" vertex="1" parent="1">
                    <mxGeometry x="270" y="170" width="230" height="310" as="geometry"/>
                </mxCell>
                <mxCell id="6" value="&lt;font style=&quot;font-size: 18px&quot;&gt;找房&lt;/font&gt;" style="text;html=1;strokeColor=none;fillColor=none;align=center;verticalAlign=middle;whiteSpace=wrap;rounded=0;" vertex="1" parent="1">
                    <mxGeometry x="110" y="180" width="40" height="20" as="geometry"/>
                </mxCell>
                <mxCell id="7" value="&lt;font style=&quot;font-size: 18px&quot;&gt;住房&lt;/font&gt;" style="text;html=1;strokeColor=none;fillColor=none;align=center;verticalAlign=middle;whiteSpace=wrap;rounded=0;" vertex="1" parent="1">
                    <mxGeometry x="365" y="180" width="40" height="20" as="geometry"/>
                </mxCell>
                <mxCell id="9" value="查找房源" style="rounded=1;whiteSpace=wrap;html=1;fillColor=#FF66FF;" vertex="1" parent="1">
                    <mxGeometry x="40" y="220" width="90" height="40" as="geometry"/>
                </mxCell>
                <mxCell id="10" value="预约带看" style="rounded=1;whiteSpace=wrap;html=1;fillColor=#FF66FF;" vertex="1" parent="1">
                    <mxGeometry x="140" y="220" width="90" height="40" as="geometry"/>
                </mxCell>
                <mxCell id="11" value="收藏房源" style="rounded=1;whiteSpace=wrap;html=1;fillColor=#FF66FF;" vertex="1" parent="1">
                    <mxGeometry x="40" y="290" width="90" height="40" as="geometry"/>
                </mxCell>
                <mxCell id="12" value="联系管家" style="rounded=1;whiteSpace=wrap;html=1;fillColor=#FF66FF;" vertex="1" parent="1">
                    <mxGeometry x="140" y="290" width="90" height="40" as="geometry"/>
                </mxCell>
                <mxCell id="13" value="账单" style="rounded=1;whiteSpace=wrap;html=1;fillColor=#FF66FF;" vertex="1" parent="1">
                    <mxGeometry x="290" y="220" width="90" height="40" as="geometry"/>
                </mxCell>
                <mxCell id="14" value="缴费" style="rounded=1;whiteSpace=wrap;html=1;fillColor=#FF66FF;" vertex="1" parent="1">
                    <mxGeometry x="390" y="220" width="90" height="40" as="geometry"/>
                </mxCell>
                <mxCell id="15" value="保修" style="rounded=1;whiteSpace=wrap;html=1;fillColor=#FF66FF;" vertex="1" parent="1">
                    <mxGeometry x="290" y="280" width="90" height="40" as="geometry"/>
                </mxCell>
                <mxCell id="16" value="退租" style="rounded=1;whiteSpace=wrap;html=1;fillColor=#FF66FF;" vertex="1" parent="1">
                    <mxGeometry x="390" y="280" width="90" height="40" as="geometry"/>
                </mxCell>
                <mxCell id="17" value="转租" style="rounded=1;whiteSpace=wrap;html=1;fillColor=#FF66FF;" vertex="1" parent="1">
                    <mxGeometry x="290" y="340" width="90" height="40" as="geometry"/>
                </mxCell>
                <mxCell id="18" value="续租" style="rounded=1;whiteSpace=wrap;html=1;fillColor=#FF66FF;" vertex="1" parent="1">
                    <mxGeometry x="390" y="340" width="90" height="40" as="geometry"/>
                </mxCell>
            </root>
        </mxGraphModel>
    </diagram>
</mxfile>